<?xml version="1.0" ?><!DOCTYPE svg  PUBLIC '-//W3C//DTD SVG 1.1//EN'  'http://www.w3.org/Graphics/SVG/1.1/DTD/svg11.dtd'><svg height="8.4666mm" style="shape-rendering:geometricPrecision; text-rendering:geometricPrecision; image-rendering:optimizeQuality; fill-rule:evenodd; clip-rule:evenodd" version="1.1" viewBox="0 0 846.66 846.66" width="8.4666mm" xml:space="preserve" xmlns="http://www.w3.org/2000/svg" xmlns:xlink="http://www.w3.org/1999/xlink"><defs><style type="text/css">
   <![CDATA[
    .fil0 {fill:black;fill-rule:nonzero}
   ]]>
  </style></defs><g id="Layer_x0020_1"><path class="fil0" d="M84.5 74.56l677.66 0c40.51,0 73.57,33.07 73.57,73.57l0 436.07c0,40.51 -33.06,73.57 -73.57,73.57l-102.05 0 0 93.7c0,11.39 -9.23,20.63 -20.63,20.63l-64.66 0c-11.4,0 -20.63,-9.24 -20.63,-20.63l0 -93.7 -261.72 0 0 93.7c0,11.39 -9.23,20.63 -20.63,20.63l-64.66 0c-11.4,0 -20.63,-9.24 -20.63,-20.63l0 -93.7 -102.05 0c-40.51,0 -73.57,-33.06 -73.57,-73.57l0 -436.07c0,-40.5 33.06,-73.57 73.57,-73.57zm474.32 285.18c-16.62,-21.27 15.77,-46.58 32.39,-25.3l13.62 17.37 47.78 -61.65c16.51,-21.38 49.07,3.75 32.56,25.15l-63.96 82.52c-8.22,10.48 -24.13,10.76 -32.48,0.08l-29.91 -38.17zm63.13 -155c76.91,0 139.26,62.35 139.26,139.26 0,76.91 -62.35,139.26 -139.26,139.26 -76.91,0 -139.26,-62.35 -139.26,-139.26 0,-76.91 62.35,-139.26 139.26,-139.26zm0 41.26c-54.12,0 -98,43.87 -98,98 0,54.12 43.88,98 98,98 54.13,0 98,-43.88 98,-98 0,-54.13 -43.87,-98 -98,-98zm-3.1 411.77l-23.4 0 0 73.07 23.4 0 0 -73.07zm-367.64 0l-23.4 0 0 73.07 23.4 0 0 -73.07zm-104.67 -278.1c-23.4,13.55 -44.03,-22.07 -20.64,-35.62l254.81 -147.42 -14.9 -7c-24.48,-11.44 -7.08,-48.68 17.41,-37.23l49.57 23.27c15.65,6.32 17.54,28.23 2.59,36.88l-288.84 167.12zm299.01 151.99c0,27.13 -41.26,27.13 -41.26,0l0 -237.91c0,-27.14 41.26,-27.14 41.26,0l0 237.91zm-114.16 0c0,27.13 -41.26,27.13 -41.26,0l0 -167.24c0,-27.14 41.26,-27.14 41.26,0l0 167.24zm-114.16 0c0,27.13 -41.26,27.13 -41.26,0l0 -83.62c0,-27.14 41.26,-27.14 41.26,0l0 83.62zm544.93 -415.84l-677.66 0c-17.72,0 -32.31,14.59 -32.31,32.31l0 436.07c0,17.73 14.59,32.31 32.31,32.31 225.89,0 451.77,0 677.66,0 17.72,0 32.31,-14.58 32.31,-32.31l0 -436.07c0,-17.72 -14.59,-32.31 -32.31,-32.31z"/></g></svg>